<?xml version="1.0" encoding="UTF-8" standalone="no"?>
<!-- Created with Inkscape (http://www.inkscape.org/) -->

<svg
   width="210mm"
   height="297mm"
   viewBox="0 0 210 297"
   version="1.1"
   id="svg5"
   inkscape:version="1.2.2 (732a01da63, 2022-12-09)"
   sodipodi:docname="logo-attempt1.svg"
   xmlns:inkscape="http://www.inkscape.org/namespaces/inkscape"
   xmlns:sodipodi="http://sodipodi.sourceforge.net/DTD/sodipodi-0.dtd"
   xmlns="http://www.w3.org/2000/svg"
   xmlns:svg="http://www.w3.org/2000/svg">
  <sodipodi:namedview
     id="namedview7"
     pagecolor="#ffffff"
     bordercolor="#000000"
     borderopacity="0.25"
     inkscape:showpageshadow="2"
     inkscape:pageopacity="0.0"
     inkscape:pagecheckerboard="0"
     inkscape:deskcolor="#d1d1d1"
     inkscape:document-units="mm"
     showgrid="false"
     inkscape:zoom="0.73851712"
     inkscape:cx="396.74097"
     inkscape:cy="561.93687"
     inkscape:window-width="1920"
     inkscape:window-height="1009"
     inkscape:window-x="-8"
     inkscape:window-y="-8"
     inkscape:window-maximized="1"
     inkscape:current-layer="layer1" />
  <defs
     id="defs2" />
  <g
     inkscape:label="Layer 1"
     inkscape:groupmode="layer"
     id="layer1">
    <path
       style="fill:#ff0000;stroke-width:0.264583"
       d="m 18.629674,45.499395 c -2.133248,3.576855 -3.869705,7.453498 -5.015681,11.464417 -0.231984,0.811943 -0.04465,1.723803 -0.358263,2.50784 -0.188169,0.470421 -0.780299,0.662503 -1.074789,1.074788 -0.923418,1.292786 -2.015954,3.540021 -2.5078411,5.015682 -0.188821,0.566465 0.098164,1.202335 0,1.791314 -0.396027,2.376164 -0.3582628,0.321442 -0.3582628,1.433052"
       id="path176" />
    <path
       style="fill:#ff0000;stroke-width:0.264583"
       d="m 12.180941,60.188178 c 0.716526,-0.358264 1.524023,-0.574347 2.149577,-1.074788 0.991284,-0.793028 1.543993,-2.039951 2.507841,-2.866104 2.53846,-2.175825 4.870278,-4.584719 7.881785,-6.09047"
       id="path178" />
    <path
       style="fill:#ff0000;stroke-width:0.264583"
       d="m 27.586249,41.200241 c 0.650716,2.766719 0.358262,5.76783 0.358262,8.59831 0,2.50784 0,5.015683 0,7.523523 0,1.313632 0.257625,2.65277 0,3.940892 -0.03312,0.165608 -0.29554,0.201456 -0.358262,0.358264 -0.49277,1.231924 -1.07452,3.044293 -1.433053,4.299156 -0.07158,0.250534 -0.19914,1.632191 -0.358263,1.791314 -0.168887,0.168886 -0.48994,-0.07553 -0.716526,0 -1.083933,0.361312 -4.175269,2.625029 -5.373944,3.224366 -0.302114,0.151059 -0.396086,0.609714 -0.716526,0.716526 -0.835947,0.278649 -0.716526,-0.378166 -0.716526,0.358264"
       id="path180" />
    <path
       style="fill:#ff0000;stroke-width:0.264583"
       d="m 37.259347,66.278648 c 1.281557,-0.762212 2.349108,-1.174554 3.58263,-1.791314 0.298286,-0.149143 1.205802,0.227251 1.433052,0 0.08444,-0.08444 -0.09936,-0.29202 0,-0.358264 0.992455,-0.661636 2.063602,-0.72131 2.866104,-1.791314 0.602732,-0.803645 1.247498,-3.051659 0.358262,-3.940892 -0.346943,-0.346945 -2.842167,0.350285 -2.866101,0.358262 -1.735228,0.578408 -2.614232,2.130031 -3.582631,3.58263 -0.356282,0.534424 -2.264399,2.805494 -1.791316,3.940892 1.465641,3.517532 4.205073,3.224366 7.16526,3.224366 1.359247,0 1.569898,0.267033 2.50784,-0.358262 0.673735,-0.449156 2.164255,-1.418378 1.433052,-2.149578"
       id="path182" />
    <path
       style="fill:#ff0000;stroke-width:0.264583"
       d="m 54.814234,61.62123 c 4.007233,-6.869546 1.345771,-1.752245 4.657418,-10.031362 0.88859,-2.221473 2.942039,-5.634863 2.50784,-8.240048 -0.182819,-1.096918 -2.993859,3.548075 -4.299154,6.448731 -2.075175,4.611495 -0.920419,2.8632 -2.149578,7.165261 -0.176676,0.618358 -0.618739,1.155689 -0.716526,1.791314 -0.145272,0.944258 0.302114,1.959763 0,2.866104 -0.324861,0.974579 -1.299393,1.605981 -1.791317,2.50784 -0.558043,1.023083 -0.358261,2.470885 -0.358261,3.58263"
       id="path184" />
    <path
       style="fill:#ff0000;stroke-width:0.264583"
       d="m 63.412544,61.262966 c 1.144161,0.09085 6.121913,-0.06288 6.806996,-1.433052 0.160221,-0.32044 0,-0.716524 0,-1.074788 0,-0.11942 0.08444,-0.27382 0,-0.358262 -0.757484,-0.757483 -2.981447,-1.100304 -3.940892,-0.716526 -1.102701,0.441079 -0.968896,0.775118 -1.791314,1.433052 -0.336227,0.268978 -0.882229,0.331404 -1.07479,0.716524 -0.213627,0.427254 0.08545,0.963075 0,1.433052 -0.0098,0.05396 -0.928701,2.375667 -0.716526,3.224368 0.155974,0.623898 0.330665,1.276832 0.716526,1.791314 0.320439,0.427254 0.988682,0.42028 1.433052,0.716526 0.77606,0.517374 1.283581,1.444916 2.149578,1.791314 0.33264,0.133056 0.727223,-0.08689 1.074788,0 0.111929,0.02798 0.423272,0.651518 0.716526,0.358264 0.267033,-0.267033 -0.697145,-0.358264 -1.074788,-0.358264"
       id="path186" />
    <path
       style="fill:#ff0000;stroke-width:0.264583"
       d="m 74.518696,60.188178 c 2.073127,0.167434 -1.557837,6.448734 -1.074787,6.448734 0.119419,0 -0.0746,-0.265012 0,-0.358264 0.42201,-0.527513 0.981133,-0.930921 1.433049,-1.433052 0.623951,-0.693277 1.17166,-1.452462 1.791316,-2.149578 0.975202,-1.0971 2.221201,-1.862939 3.224366,-2.866104 0.759569,-0.759566 1.092237,-2.263183 2.50784,-1.791314 0.320442,0.106815 0.477684,0.477684 0.716526,0.716526 1.110316,1.110313 0.476488,1.784135 0.716526,3.224366 0.08095,0.485687 0.2617,0.95023 0.358265,1.433052 0.323556,1.617789 -0.551789,3.306736 1.433052,4.299156 0.337772,0.168886 0.737015,0.189376 1.074788,0.358262 1.860849,0.930426 2.622227,1.433052 4.657418,1.433052"
       id="path188" />
    <path
       style="fill:#ff0000;stroke-width:0.264583"
       d="m 121.09288,43.708081 c -1.58467,3.629877 -2.15416,7.190452 -2.8661,11.106153 -0.62856,3.457088 -0.94972,6.115219 -2.14958,9.314836 -0.41298,1.101272 -0.99624,2.13233 -1.43305,3.224366 -0.14026,0.350634 -0.73591,1.07479 -0.35826,1.07479 0.11942,0 -0.0614,-0.25586 0,-0.358264 0.77303,-1.288397 1.68327,-2.183736 2.14957,-3.582628 0.51507,-1.545196 1.31677,-3.354784 1.79132,-5.015682 1.24375,-4.353124 1.73857,-8.933286 3.94089,-12.897466 0.44168,-0.795031 0.5703,-1.751106 1.07479,-2.50784 0.0937,-0.140523 0.4027,0.195326 0.35826,0.358261 -1.41794,5.199124 -1.07479,1.883125 -1.07479,7.165261 0,4.591177 0.43129,8.959995 2.14958,13.255728 0.36668,0.916689 0.99865,1.639025 1.43305,2.50784 0.16889,0.337775 0.16397,0.750964 0.35827,1.07479 0.24207,0.40345 1.79131,1.32977 1.79131,1.791314 0,0.119422 -0.30486,0.106815 -0.35826,0 -0.2202,-0.440402 -0.1754,-0.975884 -0.35827,-1.433052 -0.84381,-2.109528 -0.71652,-2.454892 -0.71652,-4.657418 0,-0.597104 0.26703,-1.257247 0,-1.791314 -0.0313,-0.06264 -0.9711,-0.289137 -1.07479,-0.358264 -0.49682,-0.331214 -0.57797,-1.101836 -1.07479,-1.433052 -1.58287,-1.055246 -3.53377,-1.43305 -5.37394,-1.43305"
       id="path190" />
    <path
       style="fill:#ff0000;stroke-width:0.264583"
       d="m 130.04946,58.755126 c 0.58659,-0.0026 0.27479,8.956574 0.35826,8.956574 0.11942,0 -0.0378,-0.24497 0,-0.358264 1.11568,-3.347056 2.19074,-6.783628 3.58263,-10.031362 0.10519,-0.245444 0.13608,-0.568402 0.35826,-0.716526 0.59887,-0.399243 5.73221,0.130754 5.73221,-1.074788"
       id="path192" />
    <path
       style="fill:#ff0000;stroke-width:0.264583"
       d="m 144.02171,55.53076 c 2.50726,0.422026 5.17054,-8.598313 5.37394,-8.598313 0.29362,0 -0.2945,0.799119 -0.71652,2.149578 -0.40613,1.299628 -0.74455,2.619939 -1.07479,3.940892 -1.03741,4.149657 -2.37435,8.072803 -3.58263,12.180943 -0.51647,1.756008 -1.14624,7.487793 1.07479,8.59831 1.00403,0.502015 3.08167,-0.286914 3.94089,-0.716526 0.53407,-0.267033 0.86659,-0.885968 1.43305,-1.074788 0.22659,-0.07553 0.5029,0.106813 0.71653,0 0.15106,-0.07553 -0.18937,-0.358264 -0.35826,-0.358264"
       id="path194" />
    <path
       style="fill:#ff0000;stroke-width:0.264583"
       d="m 144.02171,63.054282 c 2.93449,-0.122682 5.16244,-2.186268 7.88179,-2.866104 0.46342,-0.115856 1.00579,0.213627 1.43305,0 0.95537,-0.477684 -1.07479,-0.358264 0.35826,-0.358264"
       id="path196" />
    <path
       style="fill:#ff0000;stroke-width:1.35406"
       d="m 70.654631,269.45889 c 0.386357,-1.11711 7.941868,-26.03445 16.790025,-55.37188 11.757953,-38.98532 16.331774,-52.46871 16.995004,-50.1004 0.49909,1.78221 0.96818,17.27845 1.04242,34.43609 0.12423,28.71541 -0.0811,31.61961 -2.58333,36.52749 -1.49507,2.93249 -3.444967,8.84995 -4.333112,13.14992 -1.128445,5.46339 -2.246914,7.81836 -3.713505,7.81889 -2.288178,8.3e-4 -17.2407,8.84573 -21.961816,12.99113 -2.14029,1.87929 -2.747397,2.0283 -2.235686,0.54876 z"
       id="path336"
       transform="scale(0.26458333)" />
  </g>
</svg>
