<?xml version="1.0" encoding="UTF-8" standalone="no"?>
<!-- Created with Inkscape (http://www.inkscape.org/) -->

<svg
   width="148.04411mm"
   height="33.797985mm"
   viewBox="0 0 148.04411 33.797985"
   version="1.1"
   id="svg5"
   sodipodi:docname="logo-attempt1.svg"
   inkscape:version="1.2.2 (732a01da63, 2022-12-09)"
   xmlns:inkscape="http://www.inkscape.org/namespaces/inkscape"
   xmlns:sodipodi="http://sodipodi.sourceforge.net/DTD/sodipodi-0.dtd"
   xmlns="http://www.w3.org/2000/svg"
   xmlns:svg="http://www.w3.org/2000/svg">
  <sodipodi:namedview
     id="namedview7"
     pagecolor="#ffffff"
     bordercolor="#000000"
     borderopacity="0.25"
     inkscape:showpageshadow="2"
     inkscape:pageopacity="0.0"
     inkscape:pagecheckerboard="0"
     inkscape:deskcolor="#d1d1d1"
     inkscape:document-units="mm"
     showgrid="false"
     inkscape:zoom="0.73851712"
     inkscape:cx="93.430468"
     inkscape:cy="176.02842"
     inkscape:window-width="1920"
     inkscape:window-height="1009"
     inkscape:window-x="-8"
     inkscape:window-y="-8"
     inkscape:window-maximized="1"
     inkscape:current-layer="layer1" />
  <defs
     id="defs2" />
  <g
     inkscape:label="Layer 1"
     inkscape:groupmode="layer"
     id="layer1"
     transform="translate(-7.392028,-41.200241)">
    <path
       style="fill:#ff0000;stroke-width:0.264583"
       d="m 18.629674,45.499395 c -2.133248,3.576855 -3.869705,7.453498 -5.015681,11.464417 -0.231984,0.811943 -0.04465,1.723803 -0.358263,2.50784 -0.188169,0.470421 -0.780299,0.662503 -1.074789,1.074788 -0.923418,1.292786 -2.015954,3.540021 -2.5078411,5.015682 -0.188821,0.566465 0.098164,1.202335 0,1.791314 -0.396027,2.376164 -0.3582628,0.321442 -0.3582628,1.433052"
       id="path176" />
    <path
       style="fill:#ff0000;stroke-width:0.264583"
       d="m 12.180941,60.188178 c 0.716526,-0.358264 1.524023,-0.574347 2.149577,-1.074788 0.991284,-0.793028 1.543993,-2.039951 2.507841,-2.866104 2.53846,-2.175825 4.870278,-4.584719 7.881785,-6.09047"
       id="path178" />
    <path
       style="fill:#ff0000;stroke-width:0.264583"
       d="m 27.586249,41.200241 c 0.650716,2.766719 0.358262,5.76783 0.358262,8.59831 0,2.50784 0,5.015683 0,7.523523 0,1.313632 0.257625,2.65277 0,3.940892 -0.03312,0.165608 -0.29554,0.201456 -0.358262,0.358264 -0.49277,1.231924 -1.07452,3.044293 -1.433053,4.299156 -0.07158,0.250534 -0.19914,1.632191 -0.358263,1.791314 -0.168887,0.168886 -0.48994,-0.07553 -0.716526,0 -1.083933,0.361312 -4.175269,2.625029 -5.373944,3.224366 -0.302114,0.151059 -0.396086,0.609714 -0.716526,0.716526 -0.835947,0.278649 -0.716526,-0.378166 -0.716526,0.358264"
       id="path180" />
    <path
       style="fill:#ff0000;stroke-width:0.264583"
       d="m 37.259347,66.278648 c 1.281557,-0.762212 2.349108,-1.174554 3.58263,-1.791314 0.298286,-0.149143 1.205802,0.227251 1.433052,0 0.08444,-0.08444 -0.09936,-0.29202 0,-0.358264 0.992455,-0.661636 2.063602,-0.72131 2.866104,-1.791314 0.602732,-0.803645 1.247498,-3.051659 0.358262,-3.940892 -0.346943,-0.346945 -2.842167,0.350285 -2.866101,0.358262 -1.735228,0.578408 -2.614232,2.130031 -3.582631,3.58263 -0.356282,0.534424 -2.264399,2.805494 -1.791316,3.940892 1.465641,3.517532 4.205073,3.224366 7.16526,3.224366 1.359247,0 1.569898,0.267033 2.50784,-0.358262 0.673735,-0.449156 2.164255,-1.418378 1.433052,-2.149578"
       id="path182" />
    <path
       style="fill:#ff0000;stroke-width:0.264583"
       d="m 54.814234,61.62123 c 4.007233,-6.869546 1.345771,-1.752245 4.657418,-10.031362 0.88859,-2.221473 2.942039,-5.634863 2.50784,-8.240048 -0.182819,-1.096918 -2.993859,3.548075 -4.299154,6.448731 -2.075175,4.611495 -0.920419,2.8632 -2.149578,7.165261 -0.176676,0.618358 -0.618739,1.155689 -0.716526,1.791314 -0.145272,0.944258 0.302114,1.959763 0,2.866104 -0.324861,0.974579 -1.299393,1.605981 -1.791317,2.50784 -0.558043,1.023083 -0.358261,2.470885 -0.358261,3.58263"
       id="path184" />
    <path
       style="fill:#ff0000;stroke-width:0.264583"
       d="m 63.412544,61.262966 c 1.144161,0.09085 6.121913,-0.06288 6.806996,-1.433052 0.160221,-0.32044 0,-0.716524 0,-1.074788 0,-0.11942 0.08444,-0.27382 0,-0.358262 -0.757484,-0.757483 -2.981447,-1.100304 -3.940892,-0.716526 -1.102701,0.441079 -0.968896,0.775118 -1.791314,1.433052 -0.336227,0.268978 -0.882229,0.331404 -1.07479,0.716524 -0.213627,0.427254 0.08545,0.963075 0,1.433052 -0.0098,0.05396 -0.928701,2.375667 -0.716526,3.224368 0.155974,0.623898 0.330665,1.276832 0.716526,1.791314 0.320439,0.427254 0.988682,0.42028 1.433052,0.716526 0.77606,0.517374 1.283581,1.444916 2.149578,1.791314 0.33264,0.133056 0.727223,-0.08689 1.074788,0 0.111929,0.02798 0.423272,0.651518 0.716526,0.358264 0.267033,-0.267033 -0.697145,-0.358264 -1.074788,-0.358264"
       id="path186" />
    <path
       style="fill:#ff0000;stroke-width:0.264583"
       d="m 74.518696,60.188178 c 2.073127,0.167434 -1.557837,6.448734 -1.074787,6.448734 0.119419,0 -0.0746,-0.265012 0,-0.358264 0.42201,-0.527513 0.981133,-0.930921 1.433049,-1.433052 0.623951,-0.693277 1.17166,-1.452462 1.791316,-2.149578 0.975202,-1.0971 2.221201,-1.862939 3.224366,-2.866104 0.759569,-0.759566 1.092237,-2.263183 2.50784,-1.791314 0.320442,0.106815 0.477684,0.477684 0.716526,0.716526 1.110316,1.110313 0.476488,1.784135 0.716526,3.224366 0.08095,0.485687 0.2617,0.95023 0.358265,1.433052 0.323556,1.617789 -0.551789,3.306736 1.433052,4.299156 0.337772,0.168886 0.737015,0.189376 1.074788,0.358262 1.860849,0.930426 2.622227,1.433052 4.657418,1.433052"
       id="path188" />
    <path
       style="fill:#ff0000;stroke-width:0.264583"
       d="m 121.09288,43.708081 c -1.58467,3.629877 -2.15416,7.190452 -2.8661,11.106153 -0.62856,3.457088 -0.94972,6.115219 -2.14958,9.314836 -0.41298,1.101272 -0.99624,2.13233 -1.43305,3.224366 -0.14026,0.350634 -0.73591,1.07479 -0.35826,1.07479 0.11942,0 -0.0614,-0.25586 0,-0.358264 0.77303,-1.288397 1.68327,-2.183736 2.14957,-3.582628 0.51507,-1.545196 1.31677,-3.354784 1.79132,-5.015682 1.24375,-4.353124 1.73857,-8.933286 3.94089,-12.897466 0.44168,-0.795031 0.5703,-1.751106 1.07479,-2.50784 0.0937,-0.140523 0.4027,0.195326 0.35826,0.358261 -1.41794,5.199124 -1.07479,1.883125 -1.07479,7.165261 0,4.591177 0.43129,8.959995 2.14958,13.255728 0.36668,0.916689 0.99865,1.639025 1.43305,2.50784 0.16889,0.337775 0.16397,0.750964 0.35827,1.07479 0.24207,0.40345 1.79131,1.32977 1.79131,1.791314 0,0.119422 -0.30486,0.106815 -0.35826,0 -0.2202,-0.440402 -0.1754,-0.975884 -0.35827,-1.433052 -0.84381,-2.109528 -0.71652,-2.454892 -0.71652,-4.657418 0,-0.597104 0.26703,-1.257247 0,-1.791314 -0.0313,-0.06264 -0.9711,-0.289137 -1.07479,-0.358264 -0.49682,-0.331214 -0.57797,-1.101836 -1.07479,-1.433052 -1.58287,-1.055246 -3.53377,-1.43305 -5.37394,-1.43305"
       id="path190" />
    <path
       style="fill:#ff0000;stroke-width:0.264583"
       d="m 130.04946,58.755126 c 0.58659,-0.0026 0.27479,8.956574 0.35826,8.956574 0.11942,0 -0.0378,-0.24497 0,-0.358264 1.11568,-3.347056 2.19074,-6.783628 3.58263,-10.031362 0.10519,-0.245444 0.13608,-0.568402 0.35826,-0.716526 0.59887,-0.399243 5.73221,0.130754 5.73221,-1.074788"
       id="path192" />
    <path
       style="fill:#ff0000;stroke-width:0.264583"
       d="m 144.02171,55.53076 c 2.50726,0.422026 5.17054,-8.598313 5.37394,-8.598313 0.29362,0 -0.2945,0.799119 -0.71652,2.149578 -0.40613,1.299628 -0.74455,2.619939 -1.07479,3.940892 -1.03741,4.149657 -2.37435,8.072803 -3.58263,12.180943 -0.51647,1.756008 -1.14624,7.487793 1.07479,8.59831 1.00403,0.502015 3.08167,-0.286914 3.94089,-0.716526 0.53407,-0.267033 0.86659,-0.885968 1.43305,-1.074788 0.22659,-0.07553 0.5029,0.106813 0.71653,0 0.15106,-0.07553 -0.18937,-0.358264 -0.35826,-0.358264"
       id="path194" />
    <path
       style="fill:#ff0000;stroke-width:0.264583"
       d="m 144.02171,63.054282 c 2.93449,-0.122682 5.16244,-2.186268 7.88179,-2.866104 0.46342,-0.115856 1.00579,0.213627 1.43305,0 0.95537,-0.477684 -1.07479,-0.358264 0.35826,-0.358264"
       id="path196" />
    <path
       style="fill:#ff0000;stroke-width:1.35406"
       d="m 70.654631,269.45889 c 0.386357,-1.11711 7.941868,-26.03445 16.790025,-55.37188 11.757953,-38.98532 16.331774,-52.46871 16.995004,-50.1004 0.49909,1.78221 0.96818,17.27845 1.04242,34.43609 0.12423,28.71541 -0.0811,31.61961 -2.58333,36.52749 -1.49507,2.93249 -3.444967,8.84995 -4.333112,13.14992 -1.128445,5.46339 -2.246914,7.81836 -3.713505,7.81889 -2.288178,8.3e-4 -17.2407,8.84573 -21.961816,12.99113 -2.14029,1.87929 -2.747397,2.0283 -2.235686,0.54876 z"
       id="path336"
       transform="scale(0.26458333)" />
    <path
       style="fill:#ff0000;stroke-width:0.264583"
       id="path431"
       d="m 15.439254,45.519342 c -0.198093,2.375969 -0.834796,4.707509 -1.6536,6.940754 -0.518312,1.43075 -1.492571,2.579647 -2.445846,3.734305 -1.266639,1.418249 -1.9082865,3.173481 -2.4656535,4.956593 -0.3836302,1.549389 -0.8640233,3.07286 -1.1592853,4.642914 -0.1021911,0.832625 -0.1975475,1.662599 -0.3228412,2.49248 0,0 3.499523,1.849311 3.499523,1.849311 v 0 c 0.123859,-0.829218 0.246611,-1.652125 0.308092,-2.488951 0.25691,-1.564757 0.706001,-3.084923 1.092235,-4.620956 0.54992,-1.735122 1.160714,-3.439925 2.407661,-4.813967 0.997318,-1.183124 1.983644,-2.374275 2.495336,-3.86312 0.811098,-2.281034 1.403815,-4.643316 1.759116,-7.038515 0,0 -3.514737,-1.790848 -3.514737,-1.790848 z" />
    <path
       style="fill:#ff0000;stroke-width:0.264583"
       id="path433"
       d="m 16.861516,60.548988 c 1.909452,-1.301854 3.842941,-2.567139 5.959566,-3.506224 1.684243,-0.759691 3.347629,-1.590532 4.809596,-2.728434 0.175956,-0.168574 0.351914,-0.337145 0.52787,-0.505719 0,0 -3.345959,-2.060538 -3.345959,-2.060538 v 0 c -0.165879,0.158554 -0.331759,0.317108 -0.497638,0.475662 -1.449079,1.110282 -3.088718,1.912983 -4.747614,2.66259 -2.110772,1.000934 -4.043795,2.305828 -6.022783,3.538847 0,0 3.316962,2.123816 3.316962,2.123816 z" />
    <path
       style="fill:#ff0000;stroke-width:0.264583"
       id="path435"
       d="m 121.05388,42.12909 c -0.52517,2.670961 -1.66317,5.163841 -2.66065,7.681595 -1.07965,2.779313 -2.30046,5.499936 -3.4093,8.267303 -0.84001,2.222371 -1.47588,4.510207 -2.05558,6.811537 -0.19987,0.830641 -0.35743,1.669547 -0.55249,2.501228 -0.0777,0.331144 -0.11716,1.032094 -0.4642,1.206285 1.11261,0.540314 2.22522,1.08063 3.33783,1.620944 0,0 -3.67114,-1.521074 -3.67114,-1.521074 v 0 c 1.23689,0.664856 2.47379,1.329711 3.71068,1.994567 0.0784,-0.0907 0.18158,-0.164875 0.23519,-0.272108 0.11821,-0.236469 0.25792,-0.941883 0.30853,-1.169109 0.18567,-0.833602 0.33289,-1.673773 0.52583,-2.505875 0.56654,-2.289712 1.16112,-4.574659 2.00062,-6.783088 1.08669,-2.777246 2.31683,-5.495838 3.38644,-8.280146 1.0023,-2.535163 2.14023,-5.032819 2.79745,-7.686566 0,0 -3.48921,-1.865493 -3.48921,-1.865493 z" />
    <path
       style="fill:#ff0000;stroke-width:0.264583"
       id="path437"
       d="m 122.72577,42.211439 c 0.97334,1.94277 0.93748,4.107683 0.78025,6.218185 -0.19216,2.211514 -0.45681,4.418465 -0.45988,6.640277 0.14404,2.354432 1.04162,4.566494 1.86736,6.749502 0.77909,1.581518 1.17171,3.272393 1.49237,4.991227 0.10338,0.787873 0.0806,0.417557 0.087,1.109654 0,0 3.51893,1.793653 3.51893,1.793653 v 0 c 0.008,-0.75302 0.0284,-0.356552 -0.0774,-1.188381 -0.33842,-1.737813 -0.65801,-3.47966 -1.49205,-5.068136 -0.83318,-2.138691 -1.73024,-4.311579 -1.92448,-6.619351 -0.0109,-2.214195 0.22891,-4.417896 0.43128,-6.620844 0.17308,-2.205492 0.24329,-4.297523 -0.61187,-6.3907 0,0 -3.6115,-1.615086 -3.6115,-1.615086 z" />
    <path
       style="fill:#ff0000;stroke-width:0.264583"
       id="path439"
       d="m 114.64734,60.272702 c 1.29006,-0.01558 0.61692,-0.0236 2.01927,0.03293 0,0 -3.13835,-2.298777 -3.13835,-2.298777 v 0 c -1.43482,-0.05346 -0.74404,-0.03724 -2.07224,-0.05278 0,0 3.19132,2.318626 3.19132,2.318627 z" />
    <path
       style="fill:#ff0000;stroke-width:0.264583"
       id="path441"
       d="m 149.023,48.03309 c -1.47997,3.349506 -3.39788,6.514237 -4.55524,10.003298 -0.2168,0.653582 -0.37386,1.325483 -0.56079,1.988224 -0.40283,2.094749 -0.93815,4.480669 -0.0487,6.542456 0.10882,0.252261 0.26723,0.480113 0.40084,0.720169 1.37844,1.831631 3.14864,3.315319 5.05796,4.561594 2.01598,1.266989 3.88187,2.487935 6.11907,3.149394 0,0 -3.10052,-2.401936 -3.10052,-2.401936 v 0 c -1.15869,-0.396192 -4.01598,-1.850223 0.58668,0.653908 -0.37563,-0.231865 -0.76212,-0.44699 -1.12688,-0.695595 -1.49044,-1.01582 -2.7585,-2.34078 -3.95085,-3.681878 -0.14541,-0.216144 -0.31474,-0.417989 -0.43621,-0.648433 -1.02912,-1.952414 -0.52196,-4.343514 -0.16651,-6.385335 0.17805,-0.654667 0.32555,-1.318419 0.53416,-1.963997 1.12574,-3.483729 3,-6.665579 4.63215,-9.922272 0,0 -3.38515,-1.919597 -3.38515,-1.919597 z" />
    <path
       style="fill:#ff0000;stroke-width:0.264583"
       id="path443"
       d="m 150.38267,62.966319 c 1.31935,-0.452321 2.66731,-0.78604 4.01797,-1.126234 0.21406,-0.04674 0.42811,-0.09348 0.64215,-0.140218 0,0 -3.23311,-2.241968 -3.23311,-2.241968 v 0 c -0.21585,0.04944 -0.4317,0.09887 -0.64755,0.148307 -1.36103,0.337195 -2.70263,0.728694 -4.04598,1.129334 0,0 3.26652,2.230779 3.26652,2.230779 z" />
    <path
       style="fill:#ff0000;stroke-width:0.264583"
       id="path445"
       d="m 135.95236,56.456997 c 1.2237,0.200414 2.43151,0.474679 3.64992,0.702006 0,0 -3.1449,-2.37671 -3.1449,-2.37671 v 0 c -1.21997,-0.23772 -2.43979,-0.475567 -3.65767,-0.722878 0,0 3.15265,2.397582 3.15265,2.397582 z" />
    <path
       style="fill:#ff0000;stroke-width:0.264583"
       id="path447"
       d="m 72.855232,60.807054 c 0.484986,1.317059 0.721968,2.693892 0.862126,4.084294 0.0713,1.042246 0.04241,0.528809 0.08784,1.540245 0,0 3.505563,1.766231 3.505563,1.766231 v 0 c -0.04674,-1.023403 -0.01931,-0.503748 -0.08299,-1.558922 -0.122039,-1.409361 -0.335343,-2.802263 -0.788484,-4.148643 0,0 -3.584054,-1.683205 -3.584054,-1.683205 z" />
  </g>
</svg>
